<?xml version="1.0" encoding="UTF-8"?>
<svg width="287px" height="247px" viewBox="0 0 287 247" version="1.1" xmlns="http://www.w3.org/2000/svg" xmlns:xlink="http://www.w3.org/1999/xlink">
    <title>adidas</title>
    <g id="Web-App" stroke="none" stroke-width="1" fill="none" fill-rule="evenodd">
        <g id="adidas" fill="#000000" fill-rule="nonzero">
            <path d="M194.420542,231.861576 C190.907536,231.311637 187.780272,231.142425 187.780272,229.281094 C187.780272,228.561944 188.207343,227.802001 188.893106,227.295876 C189.49468,226.829032 191.078977,226.65982 192.148951,226.65982 C193.264847,226.65982 194.379212,227.209759 195.063445,227.92891 C195.490516,228.436546 196.004838,229.240302 196.092089,230.086362 L201.790965,230.086362 C201.662385,228.015027 200.762321,225.984483 199.133633,224.842303 C197.549336,223.700122 195.492047,222.304124 192.663273,222.304124 C189.966142,222.304124 187.30881,222.390241 185.467352,223.742425 C183.622832,225.052307 182.295697,227.250551 182.295697,229.155696 C182.295697,230.255574 182.211507,231.565455 182.640109,232.367701 C183.113102,233.171458 184.481567,234.822785 185.551541,235.455819 C187.051648,236.301878 190.564654,236.640302 192.493363,237.147938 C194.07766,237.527154 196.006369,237.613271 196.436502,239.178481 C196.690602,240.107636 196.392111,240.953695 195.536438,241.503634 C194.720563,242.052062 193.479148,242.432789 192.107621,242.432789 C190.693235,242.432789 189.321708,242.01127 188.635945,241.16521 C188.037433,240.361454 187.694551,239.6 187.221558,238.373214 L181.522682,238.373214 C181.651263,240.952185 183.110041,243.490363 184.907108,244.928665 C186.664376,246.324663 189.021687,247 192.01884,247 C195.020584,247 197.633526,246.492364 199.562235,245.138669 C201.445022,243.786484 202.473667,241.249816 202.473667,239.178481 C202.473667,237.401756 201.959345,236.005757 201.146532,234.907391 C199.476515,232.749939 196.477831,232.159208 194.420542,231.861576 L194.420542,231.861576 Z M120.126975,246.326174 L125.911571,246.326174 L125.911571,222.642548 L120.126975,222.642548 L120.126975,246.326174 Z M120.126975,221.036546 L125.954431,221.036546 L125.954431,215.327154 L120.126975,215.327154 L120.126975,221.036546 Z M111.686576,225.772969 C109.545097,224.121641 106.803575,222.980972 103.803361,222.896366 L103.503339,222.896366 C96.8615389,222.896366 91.464215,228.225031 91.464215,234.738179 C91.464215,241.292119 96.8615389,246.663087 103.503339,246.663087 L103.803361,246.663087 C106.802044,246.622295 109.543566,245.436301 111.645247,243.407268 L111.686576,246.327685 L117.171151,246.327685 L117.171151,215.328665 L111.686576,215.328665 L111.686576,225.772969 Z M103.846221,241.799755 L103.803361,241.799755 C99.8547843,241.793102 96.6555097,238.63542 96.6487686,234.738179 C96.6487686,230.890118 99.861753,227.676603 103.803361,227.676603 L103.846221,227.676603 C107.744969,227.676603 111.000813,230.847815 111.000813,234.738179 C111.000813,238.628542 107.744969,241.799755 103.846221,241.799755 Z M147.589649,225.686852 C145.4497,224.037036 142.706647,222.894855 139.706433,222.81176 L139.406412,222.81176 C132.766142,222.81176 127.324427,228.182728 127.324427,234.694365 C127.324427,241.249816 132.766142,246.620784 139.406412,246.620784 L139.706433,246.620784 C142.705116,246.536178 145.403778,245.351695 147.548319,243.321151 L147.548319,246.240057 L153.031364,246.240057 L153.031364,215.286362 L147.548319,215.286362 L147.589649,225.686852 L147.589649,225.686852 Z M139.707964,241.757452 C135.766356,241.757452 132.510511,238.543936 132.510511,234.653573 C132.510511,230.804002 135.766356,227.6343 139.707964,227.6343 C143.649572,227.6343 146.906947,230.805512 146.906947,234.653573 C146.905416,238.543936 143.649572,241.757452 139.707964,241.757452 Z M83.7509095,222.642548 L83.7509095,224.884606 C82.6365442,223.700122 82.1237525,223.320906 80.8379465,222.854063 C79.6807211,222.432544 78.0948936,222.050306 76.5519264,222.008003 L76.2962959,222.008003 C74.4533072,222.008003 72.8261503,222.302613 71.3689034,222.894855 C69.9545168,223.488608 68.6258505,224.417762 67.4272956,225.686852 C66.3557906,226.78824 65.5001173,228.138914 64.8572143,229.621029 C64.2890288,231.107246 63.9985959,232.682835 64.0000051,234.271335 C64.0000051,237.867089 65.2000959,240.869089 67.5987364,243.194243 C69.9560475,245.561699 72.9547309,246.789996 76.5534571,246.789996 L76.5963173,246.789996 C78.0535641,246.789996 79.6378609,246.366966 80.9236669,245.900122 C82.2079422,245.43479 83.1523974,245.054063 83.7509095,244.209514 L83.7509095,246.366966 L89.3212049,246.326174 L89.2783447,222.601756 L83.7509095,222.642548 L83.7509095,222.642548 Z M76.5963173,241.419052 L76.5534571,241.419052 C74.6658123,241.423859 72.8540702,240.685882 71.5192993,239.368464 C70.1845283,238.051047 69.4368306,236.262859 69.4417012,234.399755 C69.446785,230.525188 72.6278537,227.385476 76.5534571,227.380482 L76.5963173,227.380482 C80.4950649,227.380482 83.7080493,230.551695 83.7080493,234.399755 C83.7029894,238.274322 80.5219206,241.414034 76.5963173,241.419052 L76.5963173,241.419052 Z M174.626782,222.557942 L174.668112,224.798489 C173.555277,223.65782 172.999625,223.275582 171.756679,222.767946 C170.377964,222.287758 168.933293,222.017252 167.47219,221.9657 L167.215029,221.9657 C165.370509,221.9657 163.743352,222.26031 162.287636,222.81176 C160.828859,223.405512 159.501723,224.37697 158.344498,225.603757 C157.231663,226.703634 156.374459,228.055819 155.772886,229.580237 C155.187384,231.063004 154.882318,232.63917 154.872821,234.230543 C154.872821,237.783993 156.115767,240.784483 158.517469,243.15345 C160.828859,245.478604 163.871933,246.70539 167.47219,246.70539 C168.970766,246.70539 170.555063,246.326174 171.798009,245.818538 C173.083815,245.351695 174.0696,244.970968 174.668112,244.126419 L174.668112,246.283871 L180.238407,246.241568 L180.154217,222.559453 L174.626782,222.559453 L174.626782,222.557942 L174.626782,222.557942 Z M167.47219,241.376725 C163.529051,241.334422 160.314536,238.204002 160.314536,234.313638 C160.314536,230.465578 163.529051,227.336668 167.47219,227.294365 C171.412267,227.294365 174.626782,230.465578 174.626782,234.313638 C174.626782,238.205512 171.412267,241.376725 167.47219,241.376725 Z M207.318401,210.040792 C207.27401,210.040792 207.23115,210 207.23115,210 C203.502312,210 200.462299,213.002001 200.462299,216.680849 C200.462299,220.359698 203.502312,223.322417 207.23115,223.322417 L207.318401,223.322417 C211.001317,223.278604 214,220.318906 214,216.680849 C214,213.042793 211.001317,210.083095 207.318401,210.040792 Z M207.318401,222.261826 C205.817975,222.263829 204.378395,221.676528 203.317289,220.629501 C202.256183,219.582474 201.660757,218.161769 201.662382,216.680849 C201.662382,213.678849 204.188075,211.14067 207.318401,211.182973 C210.445665,211.182973 212.971355,213.677338 212.971355,216.723152 C212.971355,219.767456 210.445665,222.261826 207.318401,222.261826 L207.318401,222.261826 Z" id="Shape"></path>
            <path d="M209.710591,217.385129 C209.463873,217.14153 209.19065,216.926244 208.896017,216.743282 C209.540313,216.655967 210.052681,216.398616 210.354886,216.012589 C210.654024,215.713878 210.870323,215.242067 210.870323,214.725833 C210.870323,214.298447 210.696977,213.867996 210.525165,213.526393 C210.302708,213.227025 210.006147,212.990537 209.66457,212.840123 C209.322479,212.711448 208.762556,212.670088 207.947982,212.670088 L204.813943,212.670088 L204.813943,220 L206.3173,220 L206.3173,216.913318 L206.575018,216.913318 C206.917109,216.913318 207.174827,216.95621 207.345105,216.999102 C207.518451,217.043525 207.605891,217.127777 207.73475,217.257985 C207.73475,217.299345 207.77617,217.299345 207.77617,217.343768 C207.946448,217.429552 208.204166,217.815579 208.590743,218.373173 L209.663036,220 L211.424111,220 L210.522097,218.586101 C210.18154,218.028506 209.880869,217.556696 209.710591,217.385129 L209.710591,217.385129 Z M207.736285,215.758302 L206.318834,215.758302 L206.318834,213.913952 L207.736285,213.913952 C208.164281,213.913952 208.464952,213.913952 208.550858,213.956844 C208.762243,213.969798 208.961019,214.061663 209.107714,214.214195 C209.277992,214.341338 209.324013,214.55733 209.324013,214.770257 C209.324013,214.983184 209.279526,215.243599 209.150667,215.370743 C209.024876,215.458059 208.896017,215.585202 208.76409,215.670986 C208.593811,215.713878 208.251721,215.713878 207.736285,215.758302 Z M119.797587,177.0821 L70.806567,177.0821 C85.4474205,186.129219 102.581085,192.132547 122.074099,196.16285 L119.797587,177.0821 Z M157.154467,177.124992 L154.23366,195.04613 C173.814114,191.444745 191.075104,185.786084 206.061116,177.124992 L157.154467,177.124992 L157.154467,177.124992 Z M151.527618,177.039208 L124.606795,177.080568 C128.385129,184.926715 133.19587,191.530529 138.690793,197.8341 C144.101343,191.401854 147.707865,184.756679 151.527618,177.039208 Z M223.966401,165.119867 L52.6006104,165.032552 C46.889389,160.487547 43.0251486,158.130026 38.4307064,152.083806 L238.348002,152.083806 C233.883953,156.973478 228.775608,161.388276 223.966401,165.119867 Z M249.511193,137.249351 L28.0391367,137.335134 C25.0769103,133.219048 21.6836195,127.431711 19.5804541,122.843814 L257.972943,122.843814 C255.740919,127.987773 252.732671,132.747237 249.511193,137.249351 L249.511193,137.249351 Z M91.0282487,107.149989 L13.6974205,107.192881 C6.61323548,90.8556786 2.14765244,74.0053058 0,53.0817382 C39.848157,60.1558311 70.5918017,76.4930336 91.0282487,107.149989 Z M170.250545,107.278665 L106.658556,107.278665 C105.241106,66.4165106 116.577643,24.9538704 138.476027,0 C160.718036,24.3120243 172.226385,65.6015653 170.250545,107.278665 Z M264.498739,107.192881 L185.66302,107.235773 C207.432545,76.664601 238.691626,59.3853095 279.182545,53.2533057 C276.651383,73.7065946 271.926548,91.0701379 264.498739,107.192881 Z M271.926548,17.5810663 C271.842176,17.5381745 271.75627,17.5381745 271.66883,17.5381745 C263.339006,17.5381745 256.469587,24.3564481 256.469587,32.6744048 C256.469587,40.9923616 263.34054,47.8091034 271.66883,47.8091034 L271.926548,47.8091034 C280.259439,47.6819597 287,40.9065779 287,32.6744048 C287,24.4406999 280.257905,17.70821 271.926548,17.5810663 Z M271.926548,45.4500512 C264.972756,45.4500512 259.261535,39.704074 259.261535,32.7586567 C259.261535,25.8974912 264.972756,20.1101541 271.926548,20.1959378 C278.970848,20.1959378 284.636048,25.8990231 284.636048,32.8015486 C284.636048,39.7898577 278.970848,45.4500512 271.926548,45.4500512 Z" id="Shape"></path>
            <path d="M276.063652,35.3058649 C275.522896,34.7860374 274.922162,34.3258163 274.272841,33.9339272 C275.716741,33.7260579 276.851235,33.2687454 277.638817,32.3956941 C278.340452,31.6889384 278.734243,30.6911656 278.734243,29.528582 C278.734243,28.5723831 278.382644,27.6993318 277.946661,26.9510022 C277.463798,26.2858203 276.719971,25.705271 275.932389,25.4974016 C275.147932,25.1648107 273.835295,25 271.997604,25 L265,25 L265,40.9985152 L268.281592,40.9985152 L268.281592,34.3080921 L268.980102,34.3080921 C269.767684,34.3080921 270.334931,34.3481811 270.728722,34.4743875 C270.991249,34.5991091 271.295968,34.7654046 271.558496,35.0148478 C271.603813,35.0564217 271.692885,35.0979955 271.735077,35.1395694 C271.997604,35.5137342 272.608605,36.2620638 273.525888,37.5092799 L275.930826,41 L280,41 L277.988853,37.9250186 C277.201271,36.6778025 276.502761,35.7216036 276.063652,35.3058649 L276.063652,35.3058649 Z M271.558496,31.731997 L268.280029,31.731997 L268.280029,27.7839644 L271.558496,27.7839644 C272.522659,27.7839644 273.178977,27.7839644 273.396187,27.8255382 C274.010314,27.8671121 274.446296,28.1581292 274.708824,28.4491463 C275.060423,28.6971047 275.147932,29.1974759 275.147932,29.6948775 C275.147932,30.1106162 275.05886,30.6095026 274.840088,30.9420935 C274.57756,31.1915367 274.272841,31.44098 273.835295,31.5657016 C273.483696,31.6488493 272.785186,31.6904232 271.558496,31.731997 L271.558496,31.731997 Z" id="Shape"></path>
        </g>
    </g>
</svg>