<?xml version="1.0" encoding="UTF-8"?>
<svg width="353px" height="418px" viewBox="0 0 353 418" version="1.1" xmlns="http://www.w3.org/2000/svg" xmlns:xlink="http://www.w3.org/1999/xlink">
    <title>anti-social-social-club</title>
    <g id="Web-App" stroke="none" stroke-width="1" fill="none" fill-rule="evenodd">
        <g id="anti-social-social-club" fill="#000000">
            <g id="g10" transform="translate(176.500000, 209.000000) scale(-1, 1) rotate(-180.000000) translate(-176.500000, -209.000000) translate(0.000000, -0.000000)">
                <g id="g12" transform="translate(0.094118, 0.753153)">
                    <path d="M113.020235,289.204221 C101.440941,287.326986 93.4102588,286.270689 84.1753412,281.054162 C67.0690824,271.392149 57.2206118,251.645414 67.8966588,232.744095 C72.0044235,225.471459 79.3841882,219.287131 90.7386353,218.432302 C113.514353,216.717937 129.828706,231.919392 136.338824,246.800757 C141.993412,259.725806 142.701176,279.171279 128.164706,286.404374 C125.518118,287.72145 121.303529,288.886014 117.673412,289.272005 C115.966118,289.453703 114.840471,289.473473 113.237647,289.238113 C113.165176,289.226815 113.092706,289.215518 113.020235,289.204221 L113.020235,289.204221 Z M100.991059,277.627315 C90.3051294,275.301014 83.7922824,265.026122 83.9952,251.934437 C84.1745882,240.347176 90.9676235,226.594599 103.290353,229.407626 C115.084235,232.100149 120.494118,244.218383 120.489415,254.913158 C120.487529,258.453919 119.789176,261.957964 118.988235,265.091081 C116.795294,273.666671 109.442824,279.394401 100.991059,277.627315" id="path14"></path>
                    <path d="M98.6795294,183.073644 C75.2798118,180.278505 54.7095529,160.190968 62.4445176,137.039041 C63.8264471,132.902347 66.5672471,128.592428 69.0312471,126.372509 C69.9533176,125.542158 70.1544471,125.090266 71.2426353,124.273095 C72.1180235,123.615968 72.7521882,123.121712 73.7184,122.436342 C78.4422588,119.085752 88.2312471,116.035482 93.5874824,116.708613 C107.484235,118.454045 118.139294,124.258973 125.214118,136.152203 C127.337412,139.724032 129.049412,143.864491 130.147765,148.456842 C133.576471,162.793113 130.001882,179.141243 114.900706,182.534198 C110.272,183.574491 103.456,183.644158 98.6795294,183.073644 L98.6795294,183.073644 Z M96.9364706,172.991748 C90.5191529,172.053131 87.1882353,169.258932 84.5392941,165.22768 C78.6470588,156.26045 78.1753412,143.617833 83.6441412,134.024545 C86.0551529,129.794649 89.6643765,126.289662 96.6974118,126.909131 C108.872471,127.981432 110.385882,138.956757 112.887529,150.502595 C113.594353,153.765631 111.187765,163.50955 109.801412,166.48827 C107.732706,170.929991 103.610353,173.967081 96.9364706,172.991748" id="path16"></path>
                    <path d="M246.699294,5.77699536 C253.602824,4.0849709 263.098353,3.11742329 270.389647,1.98217671 C278.086588,0.784041847 287.382588,-1.69275596 294.131765,2.03366414 C299.902118,5.21911599 303.756235,11.7433523 301.687529,20.6712297 C299.873882,28.5002568 295.215059,30.8642162 290.372706,34.8866189 L289.094588,35.8288135 C291.503059,37.6443833 293.085176,38.0974991 295.465412,41.5069293 C299.554824,49.3712604 295.082353,60.8784991 287.772235,66.1343784 C282.228706,70.1190293 277.037176,70.2531847 269.219765,71.1968856 L247.494588,73.5262 C249.078588,65.9053257 250.122353,70.9001432 250.598588,57.5010779 C251.052235,44.7078302 250.952471,32.7728005 251.273412,20.3395599 C251.473882,12.5549689 250.865882,9.67735901 246.699294,5.77699536 L246.699294,5.77699536 Z M270.216471,28.3028365 L270.184471,21.6670865 L270.285176,14.7762059 C270.309647,13.0900842 271.887059,11.3785437 273.959529,10.8516189 C278.475294,9.70306036 282.092235,13.0036599 283.153882,15.9949018 C284.305882,19.8302401 284.381176,23.7169811 281.095529,27.7632964 C277.865412,30.8785261 274.154353,31.6353509 270.220235,31.3007626 L270.216471,28.3028365 Z M269.271529,54.515014 C269.172706,47.3916914 269.758118,42.7086793 271.278118,41.3564869 C273.495529,41.4135383 276.133647,41.9930896 277.146353,44.1719617 C277.768471,45.5098441 278.576,47.5453347 279.290353,49.2322095 L275.993412,55.6829662 C275.360941,56.5431613 274.909176,57.8401851 273.912471,58.3704991 C272.942118,58.8867856 271.680941,59.0519144 270.115765,58.8518581 C269.532235,57.6412586 269.189647,56.1650784 269.271529,54.515014" id="path18"></path>
                    <path d="M235.145412,122.988027 L251.571765,121.926081 C250.916706,125.196649 250.152471,127.15673 249.704471,129.529162 C249.290353,131.729311 249.304471,134.575288 250.514824,140.251239 C252.472471,149.426527 251.648941,149.099847 263.216941,148.313743 C272.644706,147.673563 269.987765,148.50109 273.344,137.309234 C276.224,127.704649 276.194824,131.080658 272.722824,120.543104 L299.924706,117.649113 C294.055529,130.20041 295.736471,123.647977 291.616,138.982176 C287.486118,154.354032 283.142588,171.723626 278.898824,186.665243 L272.005647,210.03182 L253.28,210.132554 C253.236706,205.554324 253.978353,202.430622 252.920471,197.878752 L245.318588,165.643797 C242.015059,151.542887 238.044235,137.060694 235.145412,122.988027 L235.145412,122.988027 Z M254.523294,162.741333 L266.798118,162.017365 C266.138353,164.423689 260.998588,184.383189 260.621176,184.897216 L259.401412,184.881212 C259.337412,184.88027 258.788706,182.243293 258.448941,180.714392 L254.523294,162.741333" id="path20"></path>
                    <path d="M216.505412,15.290327 L216.593882,10.7791279 L237.674353,7.29985221 C237.315765,9.83250856 236.306824,12.0434838 236.103529,14.7059743 C235.779765,18.9538523 236.105412,37.2766563 236.143059,42.2387117 C236.161882,44.59015 236.334118,52.9229423 236.114824,59.7113 C235.972706,64.1092437 235.966118,67.8617351 236.552471,68.9274468 C237.232941,71.5473842 238.306824,72.6123428 239.842824,74.5993491 L214.857412,77.1838883 C216.162824,70.6455775 217.232,75.6197775 217.492706,62.8103369 C217.604706,57.2878414 217.655529,51.7532014 217.655529,46.2199734 C217.653647,37.0957113 219.614118,20.7635851 208.482824,21.2945581 C202.288,21.7233847 200.028235,25.2136847 199.6,30.5644613 C199.228235,35.2114162 199.511529,40.966636 199.531294,46.552114 C199.552941,52.9520329 199.862588,57.0116225 199.659294,60.5534194 C199.376,65.4757459 199.775059,69.5320405 201.593412,78.5684662 L179.825882,80.4874063 C180.388706,76.292814 181.787294,72.9991811 181.837176,68.4508892 C181.914353,61.3764275 180.741647,31.4809545 181.094588,28.4561973 C181.568,24.3888878 183.405176,21.1195441 185.426824,19.1730198 C187.226353,17.4409559 190.615529,15.0115662 193.680941,13.8218667 C203.579294,9.98144459 207.781647,13.8866378 216.505412,15.290327" id="path22"></path>
                    <path d="M84.4018824,384.151414 C85.0088471,381.588811 87.0823529,379.057275 86.8632471,376.028658 C86.6514824,373.101716 82.1724235,352.436135 81.4404706,349.470595 C78.0264471,335.637995 75.9996235,330.599401 70.5581176,318.383257 L90.7319529,321.469302 C87.3290353,324.068622 86.5735529,326.208518 87.2661647,329.764342 C87.5477647,331.208514 88.2378353,332.920054 88.7878588,335.165392 C90.4003765,340.906302 94.0461176,341.246162 100.128941,342.421081 C102.425412,342.8645 105.805176,343.647779 108.037647,343.810649 C111.581176,344.069545 111.836235,341.934356 113.149176,339.725734 C116.849882,334.553455 116.274824,329.891437 112.728471,325.916671 L141.667765,333.559293 C141.026824,334.81141 139.737412,336.317716 138.810353,337.519937 C132.336941,345.90818 124.892235,359.054468 118.991059,368.462293 L110.748235,381.780865 C109.874824,383.229743 109.182118,384.348176 108.610824,385.222775 C108.460235,385.454369 108.343529,385.687847 108.187294,385.871428 C107.313882,386.905131 106.768,387.571671 105.6,387.881405 C104.996706,388.04145 104.108235,387.79291 103.087059,387.624392 C101.556706,387.371144 99.4861176,386.986095 96.5609412,386.461712 C94.2635294,386.050302 86.4628706,384.58636 84.4018824,384.151414 L84.4018824,384.151414 Z M92.4900706,350.340486 L106.438588,353.142216 L96.8790588,368.706126 L92.4900706,350.340486 Z" id="path24"></path>
                    <path d="M185.500235,406.713059 C186.08,405.374329 187.686588,404.022419 189.656471,399.985518 C192.918588,393.298459 194.140235,381.429707 195.461647,373.45005 C193.267765,374.08364 190.790588,376.345923 189.156706,377.598982 C180.615529,384.149532 170.256941,392.950126 161.879529,399.0855 C160.465882,400.120144 159.778824,400.56827 157.518118,400.140856 C153.510588,399.382054 148.496941,397.976482 144.447059,396.940896 C141.254588,396.124667 141.585882,396.419338 140.082824,395.561685 C148.414118,391.616104 149.593412,380.585234 151.287529,369.221095 C152.923294,358.248595 153.612235,356.179306 153.970824,353.713671 C154.607059,349.347266 154.730353,343.858662 152.442353,336.410919 C154.583529,336.826095 168.221176,340.540081 168.706824,340.850757 L169.314824,341.300766 C166.501647,344.699369 164.902588,351.806311 164.253176,357.067086 C163.861647,360.232212 163.655529,363.507486 163.331765,366.695207 L161.851294,375.563586 C164.043294,375.235023 165.623529,373.225986 167.092706,372.11791 C168.719059,370.89027 170.702118,369.175905 172.148706,367.880482 C173.200941,366.937158 175.063529,365.31223 177.264941,363.441586 C182.896,358.659063 190.750118,352.2695 192.977882,351.560595 C197.733647,349.344441 202.943059,348.307914 208.754824,348.836063 C208.784941,350.501473 208.601412,353.011356 208.151529,355.90064 C207.022118,363.129968 205.056,373.495239 204.343529,378.887815 L204.275765,379.399018 C202.496941,389.078919 200.878118,398.918865 200.228706,409.729437 L185.500235,406.713059" id="path26"></path>
                    <path d="M240.414118,253.646919 L256.826353,254.691919 C256.011294,257.918239 256.263529,261.275419 257.017412,265.077901 C257.312,266.562554 257.831529,268.11405 258.500706,269.927266 C259.692235,273.275032 261.159529,275.418694 263.328,275.34432 L272.507294,275.496833 C273.591529,275.496833 274.506353,275.378212 275.287529,275.413045 C276.645647,275.472356 277.738353,275.230405 278.708706,274.334153 C279.324235,273.766464 279.573647,273.186536 279.591529,272.343005 C279.604706,271.710356 280.461176,267.769482 280.592,267.035158 C281.606588,260.406468 279.736471,257.809973 276.595765,254.776649 L301.820235,253.612086 C301.196235,256.653883 300.032,259.677793 299.209412,262.722414 C297.448471,269.232482 288.863059,310.683207 288.566588,311.152986 L287.295059,316.892955 C286.757647,319.572297 285.274353,321.739495 283.646118,321.568153 L275.160471,321.751734 L264.167529,321.689599 C265.008941,320.047725 268.189176,318.089527 266.526118,312.653644 C265.615059,309.675865 257.445647,290.837622 255.807059,286.889216 C253.425882,281.148306 250.986353,275.570266 248.448941,270.017644 C246.033882,264.730509 242.331294,258.75518 240.414118,253.646919 L240.414118,253.646919 Z M265.749647,285.987315 L277.853176,285.979784 C277.547294,287.769464 274.639059,299.603383 273.855059,302.398523 C273.815529,302.538797 272.954353,302.510554 272.796235,302.551036 C272.395294,301.718802 272.392471,301.734806 271.139765,298.764559 C269.877647,295.772658 266.497882,288.103676 265.749647,285.987315" id="path28"></path>
                    <path d="M3.22206118,232.899432 C4.37867294,228.519847 4.86948706,226.906216 5.22831059,224.473532 L5.53566118,223.116914 C6.40256941,220.006392 8.53566118,218.679901 11.9753412,217.947459 C19.1790118,216.414793 24.3477647,214.723023 32.3584941,215.065707 C45.1327059,215.610802 58.432,223.565982 56.9540706,237.016356 C55.0110118,254.703216 28.3003294,256.146446 24.8139294,262.978486 C23.9816471,264.765342 24.3423059,266.389329 25.3683765,267.796784 C26.5838118,269.463135 29.5195294,270.095784 32.3477647,270.386689 C34.7132235,270.630523 37.1801412,270.483658 39.1201882,269.971514 C41.1514353,269.561986 44.1242353,268.415311 48.2015059,267.018212 C48.1934118,269.744626 48.2400941,271.790378 48.1963294,275.296306 C48.1856941,276.146428 47.7334588,278.025545 45.4956235,278.388941 C43.8834824,278.650662 41.3584941,279.249419 37.6698353,279.832171 C29.4352941,281.016505 23.5591529,280.372559 17.3967059,278.437896 C7.12463059,275.212518 1.11691294,268.06886 5.23529412,257.002216 C10.9591529,241.488203 39.0092235,241.62377 37.1856941,230.154189 C36.7099294,227.162288 34.1481412,225.200324 30.9996235,224.784207 C26.2117647,224.1525 11.3934118,228.640351 7.41874824,230.637149 C6.07463529,231.312162 4.57426824,232.215005 3.22206118,232.899432" id="path30"></path>
                    <path d="M0.0705882353,135.912135 C1.52904471,124.390775 1.97683765,123.453099 8.30368,121.375338 C19.6173176,117.657586 35.3521882,116.417707 45.5382588,122.943779 C55.5529412,129.358761 58.0254118,143.6875 45.9658353,152.083275 C41.9029647,154.911365 35.6607059,157.30545 31.0576941,159.722131 C28.0709647,161.290572 25.9635765,161.767883 24.7400471,164.701414 C22.2698353,170.623081 32.8459294,172.686721 39.3562353,170.662622 L47.9889882,167.499378 C48.4,178.153671 50.7588706,178.105658 38.1525647,180.401833 C30.9691294,181.710437 23.8048,181.63418 17.0680471,179.62891 C10.9080471,177.794982 5.94448941,174.492405 3.78786824,169.691054 C0.824264471,163.095315 4.35919059,155.922473 7.94485647,152.874086 C14.4919529,147.307342 24.1665882,144.012297 30.1444706,140.23241 C32.4896941,138.74964 35.1007059,136.841338 34.1463529,132.674518 C32.4687059,125.349162 23.4933647,128.060514 17.4676706,129.555523 C14.3901176,130.319032 11.3147294,131.166329 8.34742588,132.027748 C4.62941176,133.10664 2.99963294,134.898203 0.0705882353,135.912135" id="path32"></path>
                    <path d="M309.837176,116.188937 L349.747765,110.888622 L351.058824,128.218676 C348.051765,127.47682 345.943529,125.357635 339.830588,125.767162 C336.312471,126.002523 331.166118,127.454225 329.433412,129.375707 C327.371294,131.661527 327.776941,137.837383 327.582118,141.432748 C327.341176,145.874468 327.088941,150.246523 326.842353,154.698599 C326.365176,163.31373 325.877647,171.978757 325.424941,180.59577 C324.434824,195.231419 324.414118,197.901347 328.754824,204.222185 L306.477176,207.196198 C306.88,203.575414 307.672471,200.162689 308.065882,196.53155 C308.847059,189.32105 309.388235,169.836036 309.710118,162.005126 C309.985882,155.284176 311.122824,133.481333 310.843294,127.498473 C310.665412,123.698815 310.057412,120.023428 309.837176,116.188937" id="path34"></path>
                    <path d="M190.963765,140.081779 C183.878588,137.448568 174.874353,130.874482 165.659294,133.128293 C163.060706,133.627257 160.920471,135.165572 158.825412,137.029626 C156.494118,139.104563 154.074353,147.616135 153.945412,156.219027 C153.820235,164.582793 157.180235,173.415396 162.459294,179.527234 C164.712471,182.348734 167.523765,185.168351 172.294588,186.275486 C176.684235,187.316721 181.434353,186.214293 186.352,184.12241 L187.516235,199.755045 C184.373647,199.230662 181.381647,199.004716 178.658824,198.429495 C160.564706,194.606302 148.005647,183.441748 141.387294,170.071396 C138.489412,164.389797 136.226824,157.099275 136.269176,149.733437 C136.356706,134.611063 145.970824,124.467032 159.168,121.988216 C166.864,120.542162 174.704941,121.869595 181.743059,123.725176 C185.242353,124.64873 186.145882,125.06673 186.900706,126.878063 C187.223529,127.651928 187.519059,128.679982 187.979294,130.110032 C188.467765,132.405266 190.623059,137.988014 190.963765,140.081779" id="path36"></path>
                    <path d="M196.472471,298.419991 L196.424471,310.542932 C192.260706,310.448788 187.645176,309.482869 183.168941,308.232635 C176.418824,306.347869 170.179765,302.861712 166.245647,300.164482 C153.223529,291.235851 144.704,276.478757 146.444235,259.217428 C147.127529,252.437167 148.873412,248.501941 152.168471,244.376545 C164.415059,229.571437 186.353882,241.154932 194.075294,245.224784 C195.219765,245.827306 196.091294,246.503261 196.250353,246.9335 C197.166118,248.314595 198.448,252.497419 199.098353,254.360532 C199.976471,256.87418 200.806588,259.399126 200.791731,259.415131 L200.104471,260.208766 C200.153412,260.152279 193.981176,256.094667 185.963294,251.909959 C181.050353,249.594014 174.475294,247.766676 169.963294,251.885482 C165.842824,255.645599 165.620706,261.13232 165.662118,268.195014 C165.694118,273.634662 165.971765,279.135505 167.277176,284.019703 C168.762353,289.574207 171.890824,294.280473 178.112,296.923099 C180.742588,298.085779 182.837647,298.551793 184.741647,298.75232 C189.6,299.263523 191.490824,298.433171 196.472471,298.419991" id="path38"></path>
                    <path d="M118.870588,33.6488117 C116.974118,33.1034347 114.975059,32.4771878 113.181176,32.0638009 C111.121882,31.589032 109.257412,31.1782811 107.257412,30.6884491 C98.7783529,28.4612811 94.2616471,28.9827455 90.3353412,30.6483437 C82.8536471,33.8212838 81.1544471,42.5847856 82.7099294,54.049377 C82.9760941,56.0136005 83.3382588,58.057564 83.7830588,60.1654514 C84.6724706,64.9204838 86.0139294,67.729745 88.9882353,69.8590032 C91.9191529,72.2979014 97.5388235,72.8043027 102.144941,71.9842131 C104.072471,71.6407752 109.272471,70.5735572 113.610353,69.7056423 C113.635765,74.5239396 113.839059,77.7270059 113.424941,79.6878401 C113.294118,80.3027896 112.923294,80.5796676 112.564706,80.8926027 C112.125176,81.2768991 111.643294,81.6285275 110.912941,81.6615721 C109.094588,81.7435716 106.281412,82.0591428 101.663059,81.9984198 C52.7118118,81.360405 51.8566588,28.2245086 83.9463529,21.5461113 C91.1014588,20.0571275 99.1087059,21.0478063 106.328471,21.7226315 C107.096471,21.7943694 107.776941,21.8403117 108.384,21.8778752 C109.771294,21.9631698 110.979765,22.2658432 111.826824,22.2691383 C113.605647,22.2753518 114.858353,25.2946486 118.870588,33.6488117" id="path40"></path>
                    <path d="M205.625412,204.856716 C205.916235,201.570144 206.688941,198.544351 206.741647,195.209766 C206.860235,187.571851 204.918588,152.052207 204.310588,143.516158 L202.576941,123.583018 L224.031059,123.583959 C223.869176,126.509959 222.890353,130.158045 222.448941,133.187604 C221.640471,138.742108 221.042824,154.173275 221.857882,167.836414 C222.401882,176.942036 222.532706,185.387707 222.502588,189.571473 C222.647529,192.319541 222.899765,194.387887 223.131294,196.185099 C223.729882,200.820757 224.807529,203.475622 226.760471,208.459613 L205.625412,204.856716" id="path42"></path>
                    <path d="M211.36,400.801748 C216.733176,401.930536 223.680941,406.104887 225.454118,403.612892 C226.517647,402.116941 233.623529,366.258378 233.085176,362.746802 C232.907294,359.529896 231.954824,357.016248 230.826353,354.820806 L252.606118,357.130162 C251.835294,361.043734 250.687059,365.287752 249.939765,369.038455 C249.027765,373.289063 248.466824,377.377743 247.728,381.790279 C246.143059,390.206766 244.487529,398.629842 242.901647,407.045387 L255.833412,405.315018 L255.813647,416.329883 C250.803765,415.878932 245.045647,415.164378 242.302118,414.921486 L215.031529,412.014315 C212.257882,411.721527 211.422118,410.988144 211.290353,408.229721 C211.188706,406.092649 211.124706,402.883275 211.36,400.801748" id="path44"></path>
                    <path d="M124.950588,21.482564 C133.692235,20.8941631 142.405647,20.0589162 151.109647,19.3855973 C152.676706,19.2646221 156.992941,18.9351176 160.345412,18.6353626 C162.241882,18.4655266 163.827765,18.6453419 164.384,19.0020541 C165.043765,19.2193387 166.750118,23.3131968 168.974118,28.7305333 C162.237176,28.7106689 155.552,28.6375189 151.390118,28.8258072 C147.294118,29.0107063 145.949176,30.1680203 146.451765,35.9439518 C147.280941,45.4664437 147.424941,55.4071239 148.175059,64.143418 C148.403765,69.2628824 149.104941,75.2862248 150.177882,82.0245919 L129.657412,81.9407095 C131.504941,72.9308324 131.743059,79.8573937 131.330824,66.9089023 C131.090824,59.4090032 130.309647,32.8857734 128.213647,26.9774752 C126.954353,23.4245694 125.443765,23.014195 124.950588,21.482564" id="path46"></path>
                    <path d="M310.479059,253.038748 C310.575059,252.977554 310.881882,252.964374 311.104,252.938014 L322.253176,251.612464 C326.225882,251.150216 330.169412,250.685144 334.145882,250.238901 C346.455529,248.857806 343.952,247.147207 347.917176,261.314018 C344.624,261.578563 338.097882,260.814113 333.948235,261.520194 C332.239059,261.811099 330.962824,262.731829 330.361412,264.017838 C329.739294,264.898086 329.731765,267.347716 330.171294,270.240766 C330.839529,274.640122 331.270588,280.080712 331.468235,282.159414 C332.812235,297.905964 333.123765,304.013095 335.826824,318.156369 L317.495529,319.976176 C318.558118,315.764167 319.096471,312.536905 319.093647,308.523541 C319.092706,306.698086 319.121882,304.721059 318.953412,302.362748 C318.538353,296.533342 317.494588,290.915761 316.868706,285.139077 C315.362824,271.241518 316.691765,265.86777 310.479059,253.038748" id="path48"></path>
                    <path d="M210.647529,248.595144 L230.590118,252.386329 C230.257882,257.996378 229.875765,258.551829 230.073412,261.818631 C230.167529,263.380482 230.343529,265.461068 230.879059,270.063775 C231.488,275.590036 232.672,280.870581 233.295059,286.444856 C234.192,296.933455 234.234353,300.435617 234.853647,305.207784 C235.288471,308.559315 235.800471,312.487009 237.951059,319.431081 C235.820235,319.287041 217.017412,316.338446 216.702118,315.816887 C216.443294,315.388532 217.382588,311.60582 217.538824,310.767937 C217.958588,308.520716 217.926588,307.074662 217.728941,304.739887 C217.403294,300.896923 217.059765,296.967347 216.718118,293.107437 C216.181647,287.037023 214.188235,264.311568 213.136,258.865329 C212.444235,255.287851 211.309176,252.120842 210.647529,248.595144" id="path50"></path>
                    <path d="M277.918118,357.635716 L298.209882,357.635716 C296.629647,363.852054 296.731294,358.958441 294.787765,371.10586 L290.365176,399.862189 C289.162353,406.009802 289.324235,408.240077 288.937412,415.40068 L268.693647,415.347018 C269.544471,411.738473 271.444706,410.116369 272.799059,402.84091 C274.566588,393.345532 276.209882,383.406734 277.610353,373.844514 C278.635294,366.843014 278.169412,364.517653 277.918118,357.635716" id="path52"></path>
                </g>
            </g>
        </g>
    </g>
</svg>