<?xml version="1.0" encoding="UTF-8"?>
<svg width="257px" height="376px" viewBox="0 0 257 376" version="1.1" xmlns="http://www.w3.org/2000/svg" xmlns:xlink="http://www.w3.org/1999/xlink">
    <title>bape</title>
    <g id="Web-App" stroke="none" stroke-width="1" fill="none" fill-rule="evenodd">
        <g id="bape" fill="#000000">
            <path d="M117.164134,0.467841229 C79.611109,3.57924292 54.5349421,19.2553803 40.3467741,48.4887512 C36.4773328,56.4615404 35.2883293,56.6395436 34.1212647,49.4214815 C33.8485731,47.7330497 33.0058782,53.0887371 32.9034157,57.1625904 C32.8228108,60.4012416 32.620811,61.9007074 32.1283249,62.9388429 C30.7174142,65.9100021 22.7627185,72.8576487 16.6954125,76.4174691 C15.3243167,77.2218941 14.1432762,78.2173153 13.9034929,78.7711391 C13.2776674,80.2129487 13.4368458,89.1155448 14.1930855,94.8828646 C15.9969451,108.649853 11.4141667,116.92489 1.19383967,118.357848 C-0.624970808,118.613322 -0.819982653,118.28322 3.87931528,122.885074 C8.53067281,127.438285 8.81920908,128.037909 7.84715629,131.133394 C6.88704797,134.193068 1.80568933,143.909996 0.860531921,144.493704 C-0.0348974673,145.046553 0.754087956,145.78041 3.06635965,146.546019 C10.1326139,148.883772 10.9375252,154.948387 6.73176979,174.183451 C2.09227549,195.406191 4.63742383,226.042555 14.7413125,270.606045 C15.8615743,275.547015 16.1879754,277.630188 15.9412042,278.276505 C15.1631069,280.31599 12.0309729,282.536401 8.30779052,283.686844 C5.70698255,284.490376 5.70998898,284.470481 7.94961876,286.177752 C16.8864428,292.988161 18.1639329,298.157887 11.9901829,302.526112 C8.60428978,304.922496 8.56154968,305.139315 11.180315,306.616937 C17.4187439,310.135017 30.5990257,322.773407 38.9368384,333.231095 C55.0852005,353.488297 61.6410112,359.297357 64.7224422,356.083636 C69.8494661,350.735906 77.9315695,352.292135 86.1360428,360.207268 C92.5923975,366.436974 99.7004167,371.302422 103.358026,371.998437 C104.51209,372.217205 104.541911,372.184317 105.526964,369.606925 C107.334887,364.878796 108.460105,364.836082 111.552505,369.378249 C115.293483,374.873124 127.476848,377.042862 146.103729,375.531459 C155.473236,374.771697 155.79468,374.589715 161.581332,366.771055 C169.248547,356.414712 171.595677,355.083261 175.664112,358.787303 L176.506807,359.553886 L176.506807,358.725586 C176.506807,356.934835 177.914711,355.118098 181.04587,352.868859 C226.344684,320.317336 256.930017,283.987225 256.994615,262.653071 C257.005421,259.089271 257.448342,260.200979 247.303663,238.318036 C240.4971,223.633178 240.968704,216.240117 249.28864,207.207267 C250.737334,205.633173 250.759192,205.570563 250.180088,204.588135 C248.02407,200.927863 247.572292,192.401169 249.107523,184.311037 C250.220959,178.440343 250.503483,169.652084 249.884645,160.117138 C249.336418,151.649156 249.414992,151.141051 251.47261,149.887152 C252.551107,149.229872 252.596935,149.141357 251.860603,149.139327 C250.199021,149.137378 248.668746,147.243171 248.478772,144.952111 C248.173254,141.267964 249.715472,139.984262 254.156055,140.22788 L256.815529,140.373076 L255.64952,139.126079 C254.176937,137.550036 253.309297,134.904025 252.859551,130.616357 C252.157102,123.911353 251.690455,121.319019 250.233879,116.008076 C242.312904,87.1377766 221.204741,45.3296817 205.842439,28.0853783 C188.564877,8.69228731 152.70228,-2.47741331 117.164052,0.467841229 M126.658042,69.0731319 C145.897748,71.0986491 158.94469,78.814909 162.522589,90.2839344 C165.634897,100.259341 160.063002,104.622612 140.564661,107.476428 C137.569848,107.913965 131.100574,108.119822 113.420069,108.339646 C86.5778259,108.672672 88.9070799,108.447975 72.0493622,112.345855 C57.8034219,115.639239 47.5741568,112.279266 47.0518501,104.134402 C46.8179984,100.502958 47.2956149,99.5245091 54.8632933,88.1161445 C58.1407111,83.1751753 61.2350616,78.3197158 61.7385172,77.3263248 C63.1712854,74.5013361 64.5025663,74.6455577 67.3979234,77.9368303 C69.774874,80.6375741 70.3569031,80.1383206 70.0106759,75.6985538 C69.4932444,69.0741063 69.3877755,69.6219209 71.173759,69.6568394 C72.1548311,69.6756792 73.7636788,70.1887377 75.5168353,71.0429419 C81.2527837,73.8391025 89.5378619,73.7475835 105.049348,70.7177937 C115.392045,68.69723 119.860497,68.35714 126.658042,69.0731319 M105.021477,124.672008 C113.904592,127.309087 123.660222,136.32399 130.077737,147.828827 C133.863567,154.616336 138.497129,160.737632 139.848318,160.737632 C140.948753,160.737632 141.012457,164.318323 139.948749,166.428375 C137.264248,171.755234 133.506289,171.086017 128.974214,164.474481 C124.464077,157.891774 122.032361,157.872853 122.032361,164.4178 C122.031386,169.281217 120.600649,170.840369 116.140159,170.840369 C115.305346,170.840369 115.259599,170.969649 115.237742,173.400871 C115.158112,182.048886 107.539649,186.781075 93.0022474,187.212603 C75.5037533,187.730697 67.2823789,183.517575 66.8982868,173.833454 C66.74504,169.962372 68.9130842,151.420399 70.0175013,147.15961 C73.6172574,133.276254 92.7017666,121.015715 105.021396,124.672089 M52.017583,134.852297 C57.4570321,138.620004 62.0150277,148.547662 60.8469068,154.081352 C59.6419773,159.790041 55.5208895,159.902349 49.9261622,154.379702 C41.2818559,145.846999 43.1195987,128.689261 52.0176642,134.852297 M106.773578,150.42311 C95.297618,156.103865 88.9318626,156.036302 86.4951084,150.207346 C85.8493754,148.663055 85.3419383,148.387605 83.1570744,148.395644 C80.2288903,148.406526 79.9243468,149.720111 82.2406812,152.356134 C88.452296,159.426077 107.493903,158.943795 112.272749,151.594423 C114.813916,147.686555 113.057753,147.312683 106.773578,150.42311 M103.047389,192.292841 C105.785599,193.758525 106.600423,197.733956 104.599521,199.862849 C102.03349,202.592421 85.2056738,202.697826 82.508335,200.001061 C77.7882358,195.284788 95.9244186,188.477384 103.047389,192.292759" id="Shape"></path>
        </g>
    </g>
</svg>