<?xml version="1.0" encoding="UTF-8"?>
<svg width="575px" height="156px" viewBox="0 0 575 156" version="1.1" xmlns="http://www.w3.org/2000/svg" xmlns:xlink="http://www.w3.org/1999/xlink">
    <title>champion</title>
    <g id="Web-App" stroke="none" stroke-width="1" fill="none" fill-rule="evenodd">
        <g id="champion" fill="#000000" fill-rule="nonzero">
            <path d="M172.693981,18.2377437 C170.695571,31.6290687 166.69875,64.1119414 175.263499,96.3093366 C176.976823,100.582171 181.25873,99.4430596 182.972054,97.4484482 C183.543162,96.5938812 189.252372,91.1800691 189.252372,91.1800691 C191.250782,88.3299578 193.249192,89.1845247 194.676495,91.1800691 C196.103797,93.1756135 200.100618,99.4430596 206.095849,99.7276043 C212.090145,100.012149 221.511089,92.889203 225.221888,90.0390916 C227.791407,94.8838144 230.931098,99.4430596 236.070135,99.1566491 C241.209171,98.8721044 246.061252,95.1683591 250.344094,90.6091139 C253.48472,94.3137922 256.910433,98.3020822 260.907253,98.0175375 C264.903139,97.7329928 272.326607,93.4582923 279.46312,86.9044356 C282.317724,83.7707126 285.458351,85.1953018 287.455826,88.3290248 C289.453302,91.4627479 292.308842,96.5920154 296.020576,96.5920154 C299.731375,96.5920154 305.154563,91.4627479 306.866952,90.0381587 C308.580276,88.6154354 310.292665,87.4744579 312.29201,89.753614 L316.573918,93.741904 C319.143436,96.3074707 324.567559,95.7374484 328.563445,92.0327702 C332.560266,88.3280919 333.41646,87.1899132 335.128849,87.1899132 C336.842173,87.1899132 337.698367,89.4690694 339.410756,91.1782032 C341.12408,92.8873371 354.255823,104.284984 371.670409,86.618958 C371.955495,95.4529038 369.957085,145.028981 369.957085,152.153793 C369.957085,155.572061 373.952971,156.713038 379.66405,155.572061 C385.372325,154.432949 388.227865,152.721949 387.941843,144.460825 C387.655822,136.197834 386.514541,95.4529038 386.514541,95.4529038 C387.37167,88.8990471 393.079945,78.0714229 399.075176,77.7868782 C405.070407,77.5014006 402.214868,84.9098242 399.361197,84.9098242 C396.507527,84.9098242 393.365966,86.3344134 393.365966,88.8981142 C393.365966,91.461815 394.223096,98.8702385 411.066573,98.8702385 C427.909116,98.8702385 429.906591,93.4564264 434.475454,91.461815 C437.330059,96.8756271 445.893874,105.425028 469.587842,90.3227034 C474.440857,96.0201272 483.576714,103.144939 493.567832,96.0201272 C496.707523,93.4564264 499.848149,87.472592 498.705933,82.3433246 C497.849739,80.3496461 498.419912,79.4950791 499.848149,79.4950791 L509.269093,79.4950791 C511.267503,79.4950791 514.693216,80.9196683 515.834497,86.6180251 C516.976713,92.3173148 520.972599,97.1611047 524.113225,96.8746942 C527.251982,96.5901495 533.247213,91.7472926 536.67386,88.327159 C539.5294,92.3173148 551.804949,110.837907 574.356701,79.7796238 C576.355111,76.9304454 573.214485,75.5058562 571.501161,77.5004677 C569.788772,79.4950791 564.649736,82.6297351 560.367829,82.9133469 C556.085921,83.1997574 550.94782,78.9250569 546.950999,73.5112447 C542.955113,68.0974326 538.387184,70.0911112 535.531645,74.3658117 C533.533234,76.6449678 532.391953,78.9241239 530.107522,81.4878247 C528.680219,78.9241239 526.96783,73.5112447 524.113225,71.5166333 C521.257686,69.5220218 518.974189,69.2374772 512.122763,70.946611 C505.271338,72.6557449 497.563717,73.5112447 489.856097,73.7957894 C485.57419,73.5112447 486.716406,75.5058562 487.001493,77.2149901 C487.286579,78.9250569 490.426271,86.0470699 484.717996,86.3334804 C479.008786,86.6180251 479.578959,78.0704899 483.57578,73.5112447 C485.57419,71.5166333 482.718651,67.2419328 479.578959,68.9519996 C476.439268,70.6620664 474.440857,71.5166333 471.871339,75.5049233 C469.302755,79.4941462 463.877698,85.4779806 455.027862,85.7625253 C446.178026,86.0470699 448.747544,75.7904009 449.032631,71.2311557 C449.032631,68.666522 447.320242,66.3873658 442.752313,67.5274104 C438.184384,68.6674549 432.189153,68.0974326 432.761196,80.6332578 C429.621505,85.192503 422.484058,88.0416814 416.773913,87.1871144 C415.061524,86.9007039 414.490416,86.046137 415.061524,84.0533914 C415.632632,82.057847 417.059935,70.946611 408.49612,68.0964997 C399.931371,65.2473213 393.365032,69.2365442 389.083124,72.9402895 C386.799627,74.0803341 386.22852,72.9402895 386.22852,70.9456781 L386.513606,60.4035314 C386.513606,55.5597416 376.807576,54.4196971 375.380273,60.1180538 C373.952971,65.8164106 372.240582,76.9295125 363.676767,80.9187354 C355.112018,84.9070254 352.257413,79.7777579 347.689484,74.0794011 C343.121556,68.3810444 338.554562,68.665589 333.415525,73.7948565 L328.276489,78.6386463 C326.278079,80.3477802 325.136797,79.7777579 323.424408,77.2131242 C321.711085,74.6494234 320.568869,71.2292898 317.429177,70.9447452 C314.289486,70.6602005 313.717443,71.7993121 311.433946,73.5093789 L304.868542,78.6386463 C302.299959,80.6323249 301.728851,80.6323249 299.160267,77.2131242 C299.160267,77.2131242 294.877425,70.0901782 290.596452,70.0901782 C286.31361,70.0901782 284.886308,72.654812 282.317724,74.6494234 C282.317724,74.6494234 275.751386,79.2086686 273.467889,81.2023471 C271.184392,83.1978915 264.618053,87.1861815 258.337735,77.7831465 C256.054238,74.3639458 252.057417,71.7993121 249.202813,76.6431019 C246.348208,81.4859589 241.781214,88.8943824 238.355501,86.6152263 C234.929788,84.3360702 240.638998,77.7831465 244.920905,77.2121913 C249.202813,76.6431019 246.634229,71.2283569 242.351387,70.9438122 C238.068545,70.6592676 231.218054,73.5084459 228.077428,77.2121913 C224.937736,80.9168695 219.7987,85.1897042 214.660598,84.9060925 C209.522496,84.6196819 208.38028,80.6313919 205.810762,75.2185127 C203.241244,69.8047006 198.67425,70.3747229 195.248537,73.2239013 C191.822825,76.0730797 190.965695,76.9276466 188.397112,80.0613697 C185.827593,83.1969586 185.827593,81.4859589 185.542507,79.4932133 C185.256486,77.4986018 183.544097,40.7419615 186.399636,17.0930345 C187.538113,11.1147977 175.262564,9.12018625 172.693981,18.2377437 L172.693981,18.2377437 Z" id="Path"></path>
            <path d="M442.987078,61.9708329 C447.89167,61.9708329 451.867305,58.013407 451.867305,53.1312794 C451.867305,48.2491518 447.89167,44.2917259 442.987078,44.2917259 C438.082486,44.2917259 434.106851,48.2491518 434.106851,53.1312794 C434.106851,58.013407 438.082486,61.9708329 442.987078,61.9708329 Z M158.699249,71.0308635 C157.558146,71.8839335 125.304473,82.6789428 107.607569,83.8166794 L107.607569,17.8995841 C117.8831,18.1833206 137.292126,22.4458794 149.565755,26.9912444 C152.419913,28.4117872 158.414207,26.7075079 152.134871,20.4569333 C137.577168,8.80792383 114.742965,0 84.48739,0 C54.2318148,0 0,16.763708 0,50.8576666 C0,84.9516253 43.3852649,102 84.772432,102 C113.886905,102 141.002345,91.4868666 160.697347,72.7351428 C163.837482,69.6103207 159.840351,70.1787239 158.699249,71.0308635 Z M60.7924541,83.7673744 C36.1554778,78.7159352 18.6912802,66.0129145 18.6912802,51.1423334 C18.6912802,36.2773339 36.1694962,23.5789646 60.7924541,18.5238043 L60.7924541,83.7673744 L60.7924541,83.7673744 Z M561.852405,62.496443 C559.549639,62.496443 557.68238,64.2984021 557.68238,66.4985225 C557.68238,68.7451571 559.549639,70.5471161 561.852405,70.5471161 C564.143021,70.5471161 566,68.7451571 566,66.4985225 C566,64.2974718 564.143956,62.496443 561.852405,62.496443 Z M561.852405,69.7600963 C559.972997,69.7600963 558.473021,68.334902 558.473021,66.4985225 C558.473021,64.7198205 559.972997,63.2825326 561.852405,63.2825326 C563.707514,63.2825326 565.208424,64.7188902 565.208424,66.4985225 C565.208424,68.334902 563.708449,69.7600963 561.852405,69.7600963 Z" id="Shape"></path>
            <path d="M564,65.3166047 C564,64.8983891 563.811944,64.456423 563.438882,64.2406031 C563.052605,64.0258158 562.628717,64 562.204828,64 L560,64 L560,69 L560.747141,69 L560.747141,66.6961999 L561.631512,66.6961999 L563.077001,69 L563.936976,69 L562.404066,66.6961999 C563.301652,66.6714168 564,66.3048327 564,65.3166047 Z M561.569504,66.0755886 L560.747141,66.0755886 L560.747141,64.5700124 L562.0554,64.5700124 C562.690724,64.5700124 563.251842,64.6588187 563.251842,65.3031805 C563.251842,66.2026022 562.280051,66.0755886 561.569504,66.0755886 L561.569504,66.0755886 Z" id="Shape"></path>
        </g>
    </g>
</svg>