<?xml version="1.0" encoding="UTF-8"?>
<svg width="241px" height="224px" viewBox="0 0 241 224" version="1.1" xmlns="http://www.w3.org/2000/svg" xmlns:xlink="http://www.w3.org/1999/xlink">
    <title>jordan</title>
    <g id="Web-App" stroke="none" stroke-width="1" fill="none" fill-rule="evenodd">
        <g id="jordan" fill="#000000" fill-rule="nonzero">
            <path d="M130.377,15.32 C130.284574,14.8228047 130.221465,14.3206046 130.188,13.816 C129.696,6.733 135.028,0.591 142.11,0.092 C149.2,-0.402 155.34,4.937 155.835,12.02 C156.33,19.103 150.996,25.245 143.914,25.744 C143.466,25.778 143.022,25.784 142.588,25.767 C142.301,25.841 142.129,25.876 141.882,26.094 C141.153,27.23 143.736,27.018 141.98,31.983 C141.98,31.983 141.968,32.528 141.773,33.073 C141.635,34.979 140.902,40.627 140.797,43.635 C141.17,44.071 141.275,44.283 141.234,45.34 C141.068,46.769 140.74,50.271 140.213,52.515 C139.766,54.438 138.981,54.805 138.348,55.276 C137.458,59.26 137.223,62.56 134.94,67.399 C134.733,71.067 134.475,72.066 133.706,73.857 C133.62,79.258 133.993,80.062 130.349,88.614 C129.408,92.614 130.303,95.381 131.296,99.537 C132.312,103.808 135.13,105.593 135.549,109.967 C136.536,120.268 136.289,127.281 134.079,135.358 L136.008,139.926 C138.402,141.024 144.342,144.026 141.048,148.778 C145.687,151.216 152.694,153.805 158.474,158.749 C160.799,160.685 163.255,162.796 165.459,165.274 C169.655,165.928 169.207,166.261 172.317,168.172 C181.462,173.779 196.127,184.902 204.628,192.777 C206.092,193.632 206.689,194.248 207.871,194.868 C208.056,195.222 208.106,195.304 208.065,195.4 C207.659,196.428 207.674,196.458 207.307,197.277 C207.766,197.784 208.621,198.258 209.132,198.702 C209.61,198.851 209.61,198.622 210.43,198.421 C211.497,199.42 212.819,200.225 213.293,200.178 C214.74,199.811 214.493,200.11 215.716,198.742 C216.156,198.289 216.893,198.748 216.893,198.748 C217.352,198.209 218.339,197.135 219.655,196.359 C220.705,195.74 222.709,195.671 222.709,195.671 C223.38,195.677 223.254,196.365 223.196,196.589 C222.438,196.98 220.832,197.41 219.93,198.075 C217.966,200.106 216.428,202.846 216.428,202.846 C220.382,202.306 222.811,203.287 226.106,202.909 C227.903,202.805 229.229,202.921 231.116,201.555 C231.116,201.555 232.93,200.264 234.555,199.579 C236.133,198.891 237.631,199.258 239.02,200.267 C240.001,201.374 240.592,201.38 239.1,202.943 C238.561,203.55 237.78,204.228 236.788,205.21 C235.043,206.934 232.694,209.232 230.262,211.134 C227.799,213.057 225.004,214.784 223.259,215.576 C218.857,218.739 219.896,217.912 216.435,221.047 C215.998,221.438 214.839,222.137 214.277,222.51 C212.912,223.406 212.486,222.659 211.596,221.018 C211.596,221.018 211.189,220.405 210.517,219.095 C209.783,217.666 209.232,216.032 209.455,216.059 C208.635,215.955 204.943,211.627 204.934,210.699 C204.153,210.52 200.823,207.296 200.704,206.68 L197.754,204.315 C194.379,205.016 193.605,202.92 184.691,196.595 C183.674,196.577 182.103,196.028 179.851,194.358 C175.829,191.136 166.179,183.847 164.543,183.014 C162.786,182.119 160.687,181.276 159.399,180.213 C157.47,179.858 156.415,179.656 155.45,179.387 C154.464,179.117 153.567,178.768 151.071,178.434 C147.008,177.929 142.794,176.247 138.782,174.239 C136.883,173.339 135.229,172.88 133.594,172.177 C129.926,170.628 126.781,169.233 124.344,168.67 C123.414,168.578 118.994,167.252 116.676,165.899 C115.872,165.485 115.407,165.089 114.879,164.968 C113.662,164.688 112.881,165.169 112.331,165.354 C109.358,166.903 106.574,168.241 104.002,169.625 C101.608,170.905 99.404,172.235 97.068,173.58 C94.961,174.797 92.527,175.944 90.025,177.139 C90.025,177.139 82.89,180.715 78.993,182.105 C75.612,184.865 68.701,189.64 64.483,192.005 C62.394,192.998 58.336,195.569 56.464,196.144 C55.396,197.004 51.591,199.719 48.612,201.958 C46.31,203.68 44.571,205.132 44.571,205.132 C43.234,206.331 43.325,206.9 40.783,205.82 C40.077,206.4 39.532,206.761 39.078,207.094 C37.242,208.426 37.086,208.105 36.415,208.07 C35.135,209.178 34.974,208.605 33.855,209.88 C33.12,211.018 33.872,210.746 32.322,211.298 C31.995,211.424 31.84,211.819 31.588,212.038 C30.342,213.064 30.337,215.964 27.352,216.171 C25.624,217.404 26.066,218.893 24.746,218.828 C24.827,220.107 22.41,221.974 21.974,221.968 C18.168,223.281 17.904,220.483 13.335,222.571 C12.744,222.842 11.877,223.589 10.735,223.805 C8.726,224.184 6.298,223.787 4.817,222.64 C2.486,220.843 0.34,217.376 0.34,217.376 C-0.401,215.625 0.03,214.518 2.343,212.863 C3.307,212.25 3.485,211.791 5.104,211.68 C5.908,211.376 5.689,211.841 7.125,211.326 C7.957,211.027 7.957,211.24 9.633,211.097 C10.017,210.838 10.557,210.746 11.28,210.511 C12.606,210.074 13.898,209.587 13.898,209.587 C13.898,209.587 14.236,209.248 15.511,209.369 C16.59,208.927 17.698,208.271 18.266,208.07 C18.122,206.361 18.306,206.441 19.098,205.753 C20.085,204.902 20.263,205.041 20.998,205.568 C21.308,205.389 21.457,205.328 21.423,205.068 C21.302,204.178 20.539,203.759 20.769,201.797 C20.43,201.011 19.931,200.041 20.04,199.455 C20.201,198.823 20.356,198.518 20.74,198.317 C21.148,198.1 21.28,198.393 21.498,198.638 C21.888,199.092 22.204,200.436 22.204,200.436 C22.342,201.952 22.812,203.915 24.31,202.807 C25.194,201.911 25.366,199.524 27.168,200.035 L28.454,201.153 C29.545,200.127 29.597,200.127 30.251,199.714 C30.251,199.714 29.229,198.681 30.125,197.877 C30.739,197.331 31.479,196.94 32.794,195.483 C36.404,191.494 38.258,189.731 42.162,186.516 C49.951,180.11 58.813,175.617 64.444,173.383 C66.28,171.052 68.066,169.503 72.141,169.112 C76.985,160.932 86.261,153.627 88.391,152.462 C90.124,149.321 90.876,149.655 93.143,149.024 C94.939,147.584 95.347,147.584 96.151,146.08 C96.932,142.976 94.349,134.681 100.943,134.262 C102.344,132.283 101.994,132.758 103.555,130.887 C102.499,128.281 102.063,126.101 101.776,124.223 C101.724,124.005 99.159,122.197 99.887,119.837 C98.797,118.54 96.759,115.513 96.122,114.095 C95.83,114.101 95.588,113.991 95.267,113.947 C94.934,113.894 94.52,113.913 94.056,113.873 C93.029,116.523 91.91,116.72 90.084,117.305 C86.824,124.253 85.676,127.194 76.452,132.938 C72.79,137.038 71.619,141.606 71.636,141.538 C71.005,142.892 71.228,144.787 71.561,145.803 C71.079,147.307 71.205,147.456 71.205,147.456 C71.406,148.024 71.929,148.776 72.571,148.936 C73.679,149.229 74.787,149.182 74.723,150.416 C74.574,151.96 72.548,151.707 71.589,151.535 C67.898,150.949 69.064,148.544 66.704,149.347 C64.896,150.53 64.219,154.02 61.268,153.567 C60.878,153.309 60.998,152.546 61.262,151.995 C61.676,151.134 62.41,150.422 61.974,150.099 C60.0497635,150.715024 58.1287376,151.341033 56.211,151.977 C54.403,152.47 52.422,151.569 54.202,150.38 C55.029,150.059 56.211,149.656 57.669,148.722 C57.669,148.722 58.42,147.7 56.98,148.211 C55.407,148.773 53.088,149.123 51.424,148.94 C51.424,148.94 47.974,148.487 47.532,148.216 C47.084,147.945 46.677,146.879 47.756,146.885 C49.122,146.897 52.543,146.494 55.195,145.788 C56.475,145.289 58.909,143.849 60.275,143.171 C60.275,143.171 61.756,141.013 62.571,140.588 C63.931,139.022 65.079,138.097 66.284,136.495 C67.461,134.066 68.678,130.222 72.575,124.269 C74.377,121.525 76.616,118.329 79.434,115.471 C79.434,115.471 80.163,110.897 83.831,107.642 C84.641,105.736 85.869,103.492 87.08,101.414 C87.551,100.616 87.998,99.922 88.446,99.164 C89.583,97.379 90.777,94.056 95.208,93.533 C95.208,93.533 97.102,92.133 97.831,91.138 C98.968,90.168 98.709,88.659 99.633,87.596 C98.221,86.219 94.611,83.63 94.26,80.031 C93.887,76.214 95.247,73.074 97.555,70.75 C100.115,68.19 102.813,66.91 106.09,67.105 C110.182,67.713 110.957,69.068 112.26,70.411 C113.511,71.685 113.976,70.865 114.504,72.357 C117.937,73.27 117.747,72.868 117.718,75.394 C118.246,76.105 119.13,76.766 119.118,78.241 C120.272,75.847 120.501,75.406 123.584,72.771 C124.313,70.63 124.808,68.524 125.448,66.383 C126.049,64.403 126.796,62.365 127.375,60.832 C126.761,56.504 128.022,55.787 129.705,51.993 C129.407,51.471 129.471,51.322 129.597,50.466 C130.251,47.958 131.273,44.64 131.881,42.476 C131.881,42.476 132.082,41.615 132.972,41.552 C133.742,38.814 134.896,33.717 135.09,32.678 C135.882,29.814 135.371,28.895 134.763,27.282 C134.568,26.754 134.659,26.002 134.322,25.416 C133.363,23.746 132.331,21.576 131.631,20.026 C131.177,19.039 130.459,15.319 130.459,15.319 C129.843,13.42 130.377,15.32 130.377,15.32" id="Path"></path>
        </g>
    </g>
</svg>