<?xml version="1.0" encoding="UTF-8"?>
<svg width="421px" height="151px" viewBox="0 0 421 151" version="1.1" xmlns="http://www.w3.org/2000/svg" xmlns:xlink="http://www.w3.org/1999/xlink">
    <title>nike</title>
    <g id="Web-App" stroke="none" stroke-width="1" fill="none" fill-rule="evenodd">
        <g id="nike" fill="#000000" fill-rule="nonzero">
            <path d="M46.86457,150.11411 C34.34072,149.61656 24.09435,146.18969 16.08254,139.82482 C14.55351,138.60891 10.91001,134.96325 9.68768,133.42566 C6.43877,129.3404 4.22992,125.36452 2.75663,120.95329 C-1.77679,107.37438 0.55639,89.55581 9.43033,70.00019 C17.02827,53.25817 28.75219,36.65333 49.20632,13.65582 C52.21931,10.2718 61.19187,0.375 61.24979,0.375 C61.27139,0.375 60.7823,1.22206 60.16683,2.25361 C54.8485,11.16179 50.2979,21.65475 47.81884,30.73884 C43.83654,45.31495 44.31689,57.82378 49.22562,67.52327 C52.61177,74.20552 58.41695,79.99352 64.94476,83.19308 C76.37274,88.79237 93.10407,89.25558 113.53677,84.54844 C114.94356,84.22245 184.65238,65.71765 268.4462,43.42566 C352.24005,21.13152 420.81014,2.90549 420.82087,2.9205 C420.84457,2.9398 226.144,86.25328 125.072,129.4755 C109.06548,136.31859 104.78509,138.04701 97.2601,140.68904 C78.02403,147.44417 60.79302,150.66737 46.86457,150.11411 Z" id="path2"></path>
        </g>
    </g>
</svg>