<?xml version="1.0" encoding="UTF-8"?>
<svg width="336px" height="155px" viewBox="0 0 336 155" version="1.1" xmlns="http://www.w3.org/2000/svg" xmlns:xlink="http://www.w3.org/1999/xlink">
    <title>the-north-face</title>
    <g id="Web-App" stroke="none" stroke-width="1" fill="none" fill-rule="evenodd">
        <g id="the-north-face" fill="#000000" fill-rule="nonzero">
            <path d="M217.866817,8.71181548 L217.866817,0 L183.030216,0 L183.030216,47.8327982 L217.866817,47.8327982 L217.866817,39.9428521 L192.724037,39.9428521 L192.724037,26.9573158 L214.742796,26.9573158 L214.742796,18.4098742 L192.724037,18.4098742 L192.724037,8.71181548 L217.866817,8.71181548 Z M208.172995,52.7640145 L208.172995,71.1738887 L189.109392,71.1738887 L189.109392,52.7640145 L179.255832,52.7640145 L179.255832,100.434722 L189.109392,100.434722 L189.109392,79.0638348 L208.172995,79.0638348 L208.172995,100.434722 L217.866817,100.434722 L217.866817,52.7640145 L208.172995,52.7640145 Z M217.866817,113.908814 L217.866817,105.365938 L183.030216,105.365938 L183.030216,153.851666 L217.866817,153.851666 L217.866817,145.144416 L192.724037,145.144416 L192.724037,132.320971 L214.742796,132.320971 L214.742796,124.433308 L192.724037,124.433308 L192.724037,113.908814 L217.866817,113.908814 L217.866817,113.908814 Z M177.446228,0 L167.752406,0 L167.752406,18.4098742 L148.693367,18.4098742 L148.693367,0 L138.999545,0 L138.999545,47.8327982 L148.693367,47.8327982 L148.693367,26.4641942 L167.752406,26.4641942 L167.752406,47.8327982 L177.446228,47.8327982 L177.446228,0 Z M97.2668211,0 L97.2668211,8.71181548 L112.054007,8.71181548 L112.054007,47.8327982 L121.747828,47.8327982 L121.747828,8.71181548 L136.535014,8.71181548 L136.535014,0 L97.2668211,0 Z M66.7066374,51.4490235 C51.4265456,51.4490235 43.3757445,60.160839 43.3757445,76.5982266 C43.3757445,93.8574837 51.4265456,102.404925 66.7066374,102.404925 C81.9867292,102.404925 89.8732282,93.8574837 89.8732282,76.5982266 C89.8732282,60.160839 81.9867292,51.4490235 66.7066374,51.4490235 L66.7066374,51.4490235 Z M53.8910765,76.5982266 C53.8910765,65.5851769 58.1629302,60.160839 66.7066374,60.160839 C75.9075529,60.160839 80.1794066,65.5851769 80.1794066,76.5982266 C80.1794066,88.2710549 75.9075529,93.8574837 66.7066374,93.8574837 C58.1629302,93.8574837 53.8910765,88.2710549 53.8910765,76.5982266 L53.8910765,76.5982266 Z M29.4100692,52.7640145 L29.4100692,86.4606593 L10.3510299,52.7640145 L0,52.7640145 L0,100.434722 L9.20091551,100.434722 L9.20091551,66.9001679 L28.752861,100.434722 L39.1038909,100.434722 L39.1038909,52.7640145 L29.4100692,52.7640145 Z M74.5931364,125.08852 L74.5931364,113.908814 L99.0741438,113.908814 L99.0741438,105.365938 L64.8993147,105.365938 L64.8993147,153.851666 L74.5931364,153.851666 L74.5931364,133.635962 L96.1167066,133.635962 L96.1167066,125.08852 L74.5931364,125.08852 Z M175.641187,61.3114561 L175.641187,52.7640145 L136.535014,52.7640145 L136.535014,61.3114561 L151.157898,61.3114561 L151.157898,100.434722 L161.016021,100.434722 L161.016021,61.3114561 L175.641187,61.3114561 Z M115.011444,82.1892214 C118.133183,82.1892214 120.597714,82.6800601 121.747828,83.9950511 L123.555151,100.434722 L134.563389,100.434722 L134.563389,99.2841046 C133.413275,98.6243262 132.756067,95.6678793 132.756067,90.0768846 C132.756067,83.3398386 130.291536,79.7213303 126.67689,77.9132177 C131.605952,75.9407311 134.070483,72.3245058 134.070483,66.2426724 C134.070483,57.6952308 129.141421,52.7640145 118.790391,52.7640145 L94.8022901,52.7640145 L94.8022901,100.434722 L104.660414,100.434722 L104.660414,82.1892214 L115.011444,82.1892214 L115.011444,82.1892214 Z M104.660414,74.1326185 L104.660414,61.3114561 L116.818767,61.3114561 C121.747828,61.3114561 124.212359,63.1195687 124.212359,67.3932895 C124.212359,71.6670103 121.747828,74.1326185 116.32586,74.1326185 L104.660414,74.1326185 Z M121.747828,105.365938 L110.082382,105.365938 L92.9949674,153.851666 L103.345997,153.851666 L107.124945,143.334021 L124.869568,143.334021 L127.827005,153.851666 L138.342337,153.851666 L121.747828,105.365938 L121.747828,105.365938 Z M115.668652,116.374422 L121.747828,135.446358 L109.589476,135.446358 L115.668652,116.374422 Z M169.562011,121.305638 L179.255832,121.305638 C178.760644,117.0342 177.446228,113.417975 174.486509,110.292588 C170.216937,106.676363 165.287875,104.210755 158.55149,104.210755 C151.815106,104.210755 146.886044,106.676363 142.61419,110.952367 C138.999545,115.223805 136.535014,121.305638 136.535014,129.362241 C136.535014,146.457124 143.764305,155 157.894282,155 C170.216937,155 176.951039,148.918167 179.255832,137.249904 L169.562011,137.249904 C168.247594,142.836333 163.973458,145.797346 158.55149,145.797346 C150.500689,145.797346 146.886044,140.375291 146.886044,129.85308 C146.886044,118.349191 150.500689,112.758197 158.55149,112.758197 C163.973458,112.758197 167.09748,115.883583 169.562011,121.305638 L169.562011,121.305638 Z M47.8119002,153.196453 C49.4549208,153.196453 50.7693373,152.536675 51.7574317,151.717088 C52.578942,150.730845 53.2338683,149.415854 53.2338683,147.610024 C53.2338683,145.635255 52.57666,144.320264 51.7574317,143.498395 C50.7716193,142.678808 49.4572028,142.183404 47.8119002,142.183404 L47.6475982,142.183404 C45.6759734,142.183404 44.3615569,142.678808 43.5400466,143.498395 C42.7208183,144.317981 42.2256301,145.635255 42.2256301,147.610024 L42.2256301,147.769832 C42.2256301,149.415854 42.7185363,150.730845 43.5400466,151.717088 C44.3615569,152.536675 45.6782554,153.196453 47.6475982,153.196453 L47.8119002,153.196453 Z M47.6475982,154.511511 C45.3473693,154.511511 43.7043487,153.691858 42.5542342,152.536675 C41.4041198,151.386058 40.9112136,149.744602 40.9112136,147.769832 L40.9112136,147.610024 C40.9112136,145.304224 41.4041198,143.662768 42.5542342,142.514434 C43.7043487,141.363817 45.3473693,140.868413 47.6475982,140.868413 L47.8119002,140.868413 C49.783525,140.868413 51.4265456,141.363817 52.57666,142.514434 C53.7267745,143.665051 54.5482848,145.306507 54.5482848,147.610024 C54.5482848,149.746885 53.7267745,151.386058 52.57666,152.536675 C51.3176047,153.80788 49.6006726,154.519468 47.8119002,154.511511 L47.6475982,154.511511 L47.6475982,154.511511 Z M48.3048064,146.950246 L48.4691085,146.950246 C49.1263167,146.950246 49.4549208,146.619215 49.4549208,145.799629 L49.4549208,145.635255 C49.4549208,145.635255 49.2906188,145.635255 49.2906188,145.470881 C49.1263167,145.306507 48.7977126,145.306507 48.3048064,145.306507 L46.4974837,145.306507 L46.4974837,146.952529 L48.3048064,146.952529 L48.3048064,146.950246 L48.3048064,146.950246 Z M49.4549208,148.100863 L50.7693373,149.746885 C50.9336394,150.07335 50.7693373,150.402097 50.6050353,150.566471 C50.2764312,150.897502 49.783525,150.730845 49.6192229,150.566471 L47.9762023,148.265237 L46.4974837,148.265237 L46.4974837,150.071067 C46.4974837,150.402097 46.1688796,150.730845 45.8402755,150.730845 C45.5116713,150.730845 45.1830672,150.399814 45.1830672,150.071067 L45.1830672,144.649012 C45.1830672,144.317981 45.5116713,143.993799 45.8402755,143.993799 L48.4691085,143.993799 C49.1263167,143.993799 49.783525,144.153607 50.1121291,144.484638 C50.2764312,144.649012 50.4407332,144.649012 50.4407332,144.815669 C50.7693373,145.146699 50.7693373,145.470881 50.7693373,145.801912 C50.7693373,147.11462 50.4407332,147.769832 49.4549208,148.100863 Z M224.60092,0 C255.163385,0 281.613735,11.1774236 302.973003,32.5460276 C324.98948,54.5721271 336,80.8719474 336,111.607579 L336,153.851666 L291.309839,153.851666 L291.309839,110.292588 C291.309839,93.2022712 285.230663,78.4063393 272.908008,66.2426724 C269.948289,63.1195687 266.828832,60.6539606 263.214186,58.1883524 C253.356063,51.4490235 241.690616,48.4902937 229.532263,48.4902937 L224.603202,48.4902937 L224.603202,0 L224.60092,0 Z M287.033421,153.851666 L252.201384,153.851666 L252.201384,120.155021 C252.201384,114.568592 250.396343,110.292588 246.617396,106.676363 C243.002751,102.90033 238.073689,101.089934 233.144627,101.089934 L224.60092,101.089934 L224.60092,52.7640145 L229.529981,52.7640145 C242.34326,52.7640145 253.351499,56.3802398 263.211904,63.7770642 C265.676435,64.9276814 268.140966,67.3932895 269.946007,69.2014022 C281.613735,80.8742304 287.033421,94.3528883 287.033421,110.294871 L287.033421,153.851666 L287.033421,153.851666 Z M247.931812,153.851666 L224.598638,153.851666 L224.598638,105.365938 L233.144627,105.365938 C236.923574,105.365938 240.53822,106.676363 243.657677,109.637376 C246.122208,112.102984 247.931812,115.883583 247.931812,120.155021 L247.931812,153.851666 L247.931812,153.851666 Z" id="Shape"></path>
        </g>
    </g>
</svg>