<?xml version="1.0" encoding="UTF-8"?>
<svg width="17px" height="17px" viewBox="0 0 17 17" version="1.1" xmlns="http://www.w3.org/2000/svg" xmlns:xlink="http://www.w3.org/1999/xlink">
    <title>search</title>
    <g id="Symbols" stroke="none" stroke-width="1" fill="none" fill-rule="evenodd">
        <g id="Icons/Search" transform="translate(1.000000, 1.000000)" fill="#000000" fill-rule="nonzero">
            <g id="Search" transform="translate(-1.000000, -1.000000)">
                <path d="M7,0 C10.8659932,0 14,3.13400675 14,7 C14,8.57234957 13.4815869,10.0236173 12.6063605,11.1922034 L16.363961,14.9497475 L14.9497475,16.363961 L11.1922034,12.6063605 C10.0236173,13.4815869 8.57234957,14 7,14 C3.13400675,14 0,10.8659932 0,7 C0,3.13400675 3.13400675,0 7,0 Z M7,2 C4.23857625,2 2,4.23857625 2,7 C2,9.76142375 4.23857625,12 7,12 C9.76142375,12 12,9.76142375 12,7 C12,4.23857625 9.76142375,2 7,2 Z" id="search"></path>
            </g>
        </g>
    </g>
</svg>