<?xml version="1.0" encoding="UTF-8"?>
<svg width="16px" height="18px" viewBox="0 0 16 18" version="1.1" xmlns="http://www.w3.org/2000/svg" xmlns:xlink="http://www.w3.org/1999/xlink">
    <title>user</title>
    <g id="Web-App" stroke="none" stroke-width="1" fill="none" fill-rule="evenodd">
        <g id="Mobile:-Home" transform="translate(-340.000000, -22.000000)" stroke="#000000" stroke-width="2">
            <g id="Navbar" transform="translate(17.000000, 18.000000)">
                <path d="M331,15 C329.067003,15 327.317003,15.7835017 326.050253,17.0502525 C325.009826,18.0906791 324.295395,19.4571011 324.073319,20.9831591 L337.891981,20.7679001 C337.629781,19.2910588 336.904356,17.9743757 335.871471,16.9731865 C334.611396,15.7517777 332.893485,15 331,15 Z M331,5 C329.895431,5 328.895431,5.44771525 328.171573,6.17157288 C327.447715,6.8954305 327,7.8954305 327,9 C327,10.1045695 327.447715,11.1045695 328.171573,11.8284271 C328.895431,12.5522847 329.895431,13 331,13 C332.104569,13 333.104569,12.5522847 333.828427,11.8284271 C334.552285,11.1045695 335,10.1045695 335,9 C335,7.8954305 334.552285,6.8954305 333.828427,6.17157288 C333.104569,5.44771525 332.104569,5 331,5 Z" id="user"></path>
            </g>
        </g>
    </g>
</svg>