<?xml version="1.0" encoding="UTF-8"?>
<svg width="190px" height="179px" viewBox="0 0 190 179" version="1.1" xmlns="http://www.w3.org/2000/svg" xmlns:xlink="http://www.w3.org/1999/xlink">
    <title>email</title>
    <g id="Web-App" stroke="none" stroke-width="1" fill="none" fill-rule="evenodd">
        <g id="email" fill="#000000" fill-rule="nonzero">
            <path d="M74,137 L74,173.153675 C74,175.679287 75.6365872,177.916481 78.0599951,178.711581 C78.6658471,178.906459 79.2874355,179 79.9011556,179 C81.7423162,179 83.5205311,178.142539 84.653553,176.614699 L106,147.835189 L74,137 Z" id="Path"></path>
            <path d="M187.505997,1.09879516 C185.68517,-0.18889914 183.294344,-0.36269837 181.315184,0.672197045 L3.19075849,93.4967858 C1.08493195,94.5948809 -0.157980707,96.838471 0.0161853978,99.2005605 C0.198268144,101.57055 1.77367973,103.592941 4.01408916,104.359238 L53.5326794,121.249363 L158.990256,31.2687615 L77.3855191,129.378427 L160.375668,157.684001 C160.993166,157.8894 161.64233,158 162.291495,158 C163.368158,158 164.436905,157.707701 165.378985,157.138904 C166.883147,156.222508 167.904394,154.682015 168.165643,152.951922 L189.936406,6.80256988 C190.260988,4.59057968 189.326824,2.39438942 187.505997,1.09879516 Z" id="Path"></path>
        </g>
    </g>
</svg>