<?xml version="1.0" encoding="UTF-8"?>
<svg width="190px" height="190px" viewBox="0 0 190 190" version="1.1" xmlns="http://www.w3.org/2000/svg" xmlns:xlink="http://www.w3.org/1999/xlink">
    <title>instagram</title>
    <g id="Web-App" stroke="none" stroke-width="1" fill="none" fill-rule="evenodd">
        <g id="instagram" fill="#000000" fill-rule="nonzero">
            <path d="M189.5171,55.8606901 C189.071905,45.7652273 187.439036,38.8246873 185.099946,32.8106163 C182.686897,26.4268273 178.974515,20.7114295 174.110715,15.9601972 C169.358576,11.1350213 163.604384,7.38565102 157.293335,5.01075958 C151.243312,2.67211523 144.337702,1.03955853 134.240313,0.594447565 C124.067516,0.111640095 120.838034,0 95.0369789,0 C69.235924,0 66.0064417,0.111640095 55.8713489,0.556751064 C45.7739598,1.00186203 38.8320955,2.63586813 32.8183266,4.97306307 C26.4318698,7.38565102 20.7153814,11.0973248 15.9632425,15.9601972 C11.137146,20.7114295 7.38850996,26.4645238 5.01171568,32.7743692 C2.67262509,38.8246873 1.03975689,45.7275308 0.594560992,55.8229936 C0.111661397,65.9938493 0,69.2227156 0,95.0188483 C0,120.814981 0.111661397,124.043847 0.556857298,134.177006 C1.0020532,144.272469 2.63637108,151.213009 4.97546167,157.22708 C7.38850996,163.610869 11.137146,169.326267 15.9632425,174.077499 C20.7153814,178.902675 26.4695735,182.652045 32.7806229,185.026937 C38.8320955,187.365581 45.7362561,188.998138 55.8350949,189.443249 C65.968738,189.889809 69.19967,190 95.0007248,190 C120.80178,190 124.031262,189.889809 134.166355,189.443249 C144.263744,188.998138 151.205608,187.365581 157.219377,185.026937 C169.990841,180.090121 180.08823,169.994658 185.025988,157.22708 C187.363629,151.176762 188.997947,144.272469 189.443143,134.177006 C189.888339,124.043847 190,120.814981 190,95.0188483 C190,69.2227156 189.962296,65.9938493 189.5171,55.8606901 Z M172.403889,133.434672 C171.994947,142.713856 170.436037,147.724616 169.136703,151.065122 C165.943475,159.342444 159.372849,165.911817 151.093947,169.104436 C147.752803,170.403522 142.704833,171.962135 133.460132,172.36955 C123.436701,172.81611 120.430541,172.926301 95.0746825,172.926301 C69.7188236,172.926301 66.6749603,172.81611 56.687783,172.36955 C47.406828,171.962135 42.3951123,170.403522 39.0539686,169.104436 C34.9340944,167.58207 31.1840087,165.169482 28.1401454,162.01456 C24.9846207,158.933581 22.5715724,155.221907 21.0489159,151.102819 C19.7495822,147.762312 18.1906717,142.713856 17.7831795,133.472368 C17.3365339,123.450849 17.2263222,120.443814 17.2263222,95.0927918 C17.2263222,69.7417702 17.3365339,66.6984876 17.7831795,56.7146649 C18.1906717,47.4354805 19.7495822,42.424721 21.0489159,39.0842146 C22.5715724,34.9636769 24.9846207,31.2157561 28.1778491,28.1710241 C31.2579664,25.0161014 34.9703484,22.6035134 39.0916723,21.0825968 C42.432816,19.783511 47.4822354,18.2248979 56.7254867,17.816034 C66.7489181,17.3709231 69.7565273,17.259283 95.1109366,17.259283 C120.504499,17.259283 123.510659,17.3709231 133.497836,17.816034 C142.778791,18.2248979 147.790507,19.783511 151.131651,21.0825968 C155.251525,22.6035134 159.00161,25.0161014 162.045474,28.1710241 C165.200998,31.2520032 167.614047,34.9636769 169.136703,39.0842146 C170.436037,42.424721 171.994947,47.4717276 172.403889,56.7146649 C172.849085,66.7361841 172.960747,69.7417702 172.960747,95.0927918 C172.960747,120.443814 172.849085,123.413153 172.403889,133.434672 Z" id="Shape"></path>
            <path d="M95,47 C68.500475,47 47,68.4990496 47,95 C47,121.50095 68.500475,143 95,143 C121.50095,143 143,121.50095 143,95 C143,68.4990496 121.50095,47 95,47 Z M95,126.136407 C77.8084598,126.136407 63.8635932,112.192966 63.8635932,95 C63.8635932,77.8070344 77.8084598,63.8635932 95,63.8635932 C112.192966,63.8635932 126.136407,77.8070344 126.136407,95 C126.136407,112.192966 112.192966,126.136407 95,126.136407 L95,126.136407 Z" id="Shape"></path>
            <path d="M156,46.5 C156,52.2984476 151.298747,57 145.499332,57 C139.701253,57 135,52.2984476 135,46.5 C135,40.7002164 139.701253,36 145.499332,36 C151.298747,36 156,40.7002164 156,46.5 L156,46.5 Z" id="Path"></path>
        </g>
    </g>
</svg>