<?xml version="1.0" encoding="UTF-8"?>
<svg width="190px" height="150px" viewBox="0 0 190 150" version="1.1" xmlns="http://www.w3.org/2000/svg" xmlns:xlink="http://www.w3.org/1999/xlink">
    <title>twitter</title>
    <g id="Web-App" stroke="none" stroke-width="1" fill="none" fill-rule="evenodd">
        <g id="twitter" fill="#000000" fill-rule="nonzero">
            <path d="M190,17.7576923 C182.934375,20.7692308 175.405625,22.7653846 167.55625,23.7346154 C175.63125,19.05 181.794375,11.6884615 184.691875,2.81538462 C177.163125,7.17692308 168.850625,10.2576923 159.991875,11.9769231 C152.843125,4.58076923 142.654375,0 131.539375,0 C109.974375,0 92.613125,17.0076923 92.613125,37.8576923 C92.613125,40.8576923 92.874375,43.7423077 93.515625,46.4884615 C61.1325,44.9538462 32.478125,29.8730769 13.22875,6.9 C9.868125,12.5653846 7.896875,19.05 7.896875,26.0307692 C7.896875,39.1384615 14.84375,50.7576923 25.19875,57.4846154 C18.940625,57.3692308 12.80125,55.6038462 7.6,52.8230769 C7.6,52.9384615 7.6,53.0884615 7.6,53.2384615 C7.6,71.6307692 21.101875,86.9076923 38.8075,90.4269231 C35.636875,91.2692308 32.18125,91.6730769 28.595,91.6730769 C26.10125,91.6730769 23.58375,91.5346154 21.220625,91.0269231 C26.2675,106.015385 40.58875,117.034615 57.6175,117.392308 C44.365,127.465385 27.538125,133.534615 9.321875,133.534615 C6.1275,133.534615 3.06375,133.396154 0,133.015385 C17.254375,143.826923 37.703125,150 59.755,150 C131.4325,150 170.62,92.3076923 170.62,42.3 C170.62,40.6269231 170.560625,39.0115385 170.4775,37.4076923 C178.208125,32.0769231 184.70375,25.4192308 190,17.7576923 Z" id="Path"></path>
        </g>
    </g>
</svg>