<?xml version="1.0" encoding="UTF-8"?>
<svg width="16px" height="16px" viewBox="0 0 16 16" version="1.1" xmlns="http://www.w3.org/2000/svg" xmlns:xlink="http://www.w3.org/1999/xlink">
    <title>favicon</title>
    <defs>
        <linearGradient x1="20.3105377%" y1="2.74677619%" x2="74.8780258%" y2="87.4481549%" id="linearGradient-1">
            <stop stop-color="#3C1FCF" offset="0%"></stop>
            <stop stop-color="#8616E9" offset="100%"></stop>
        </linearGradient>
    </defs>
    <g id="favicon" stroke="none" stroke-width="1" fill="none" fill-rule="evenodd">
        <g id="Logo" transform="translate(1.000000, 0.000000)" fill="url(#linearGradient-1)">
            <path d="M11.3769282,6.31932773 C12.4589761,7.8908941 13,9.50433948 13,11.1596639 C13,12.8149883 12.4589761,14.4284336 11.3769282,16 L6.86516854,16 C7.79335024,14.3865546 8.2574411,12.7731092 8.2574411,11.1596639 C8.2574411,9.54621849 7.79335024,7.93277311 6.86516854,6.31932773 L11.3769282,6.31932773 Z M4.5117597,-1.33226763e-13 C5.59380754,2.57562266 6.13483146,5.21988036 6.13483146,7.93277311 C6.13483146,10.6456659 5.59380754,13.2899236 4.5117597,15.8655462 L-7.99360578e-14,15.8655462 C0.928181705,13.2212885 1.39227256,10.5770308 1.39227256,7.93277311 C1.39227256,5.28851541 0.928181705,2.6442577 -7.89645733e-14,-1.33226763e-13 L4.5117597,-1.33226763e-13 Z"></path>
        </g>
    </g>
</svg>