<?xml version="1.0" encoding="UTF-8"?>
<svg width="20px" height="27px" viewBox="0 0 20 27" version="1.1" xmlns="http://www.w3.org/2000/svg" xmlns:xlink="http://www.w3.org/1999/xlink">
    <title>Logo</title>
    <g id="Symbols" stroke="none" stroke-width="1" fill="none" fill-rule="evenodd">
        <g id="Logo/LogoOnly" fill="#000000">
            <g id="Logo">
                <path d="M17.0615198,10.295416 C18.6842233,12.8558038 19.495575,15.4844207 19.495575,18.1812666 C19.495575,20.8781125 18.6842233,23.5067293 17.0615198,26.0671171 L10.295416,26.0671171 C11.6873726,23.4385003 12.3833509,20.8098834 12.3833509,18.1812666 C12.3833509,15.5526497 11.6873726,12.9240329 10.295416,10.295416 L17.0615198,10.295416 Z M6.76610382,-4.26325641e-14 C8.38880727,4.1961911 9.20015899,8.50420206 9.20015899,12.9240329 C9.20015899,17.3438637 8.38880727,21.6518746 6.76610382,25.8480657 L-2.7533531e-14,25.8480657 C1.39195662,21.5400548 2.08793493,17.2320438 2.08793493,12.9240329 C2.08793493,8.61602191 1.39195662,4.30801096 -2.59507935e-14,-4.26325641e-14 L6.76610382,-4.26325641e-14 Z"></path>
            </g>
        </g>
    </g>
</svg>